# Wavefront Obj file
# 
# verts: 48 uv-s: 128
mtllib shrub_box_thing.mtl

g pCube8
#pivot 0.000000 0.000000 0.000000

v -3.370369 0.083838 -1.033776
v -3.370369 0.083838 1.033776
v -3.370369 1.083838 1.033776
v -3.370369 1.083838 -1.033776
v -3.280815 0.091591 0.454864
v -2.913370 0.091591 0.454864
v -2.913370 -0.013743 0.454864
v -3.280815 -0.013743 0.454864
v -3.280815 -0.013743 0.822309
v -3.280815 0.091591 0.822309
v -2.913370 -0.013743 0.822309
v -3.161871 1.083838 -0.805829
v -3.161871 1.083838 0.805829
v -3.161871 0.529709 0.805829
v -3.161871 0.529709 -0.805829
v -2.913370 0.091591 0.822309
v 3.370369 1.083838 -1.033776
v 3.370369 0.083838 -1.033776
v 3.161871 1.083838 -0.805829
v 3.161871 0.529709 -0.805829
v 3.370369 0.083838 1.033776
v 3.161871 0.529709 0.805829
v 3.161871 1.083838 0.805829
v 3.370369 1.083838 1.033776
v 2.925464 0.091591 -0.827481
v 3.292908 0.091591 -0.827481
v 3.292908 -0.013743 -0.827481
v 2.925464 -0.013743 -0.827481
v 2.925464 -0.013743 -0.460036
v 2.925464 0.091591 -0.460036
v 3.292908 -0.013743 -0.460036
v 3.292908 0.091591 -0.460036
v 2.925464 0.091591 0.454864
v 3.292908 0.091591 0.454864
v 3.292908 -0.013743 0.454864
v 2.925464 -0.013743 0.454864
v 2.925464 -0.013743 0.822309
v 2.925464 0.091591 0.822309
v 3.292908 -0.013743 0.822309
v 3.292908 0.091591 0.822309
v -3.280815 -0.013743 -0.460036
v -2.913370 -0.013743 -0.460036
v -2.913370 0.091591 -0.460036
v -3.280815 0.091591 -0.460036
v -2.913370 -0.013743 -0.827481
v -2.913370 0.091591 -0.827481
v -3.280815 -0.013743 -0.827481
v -3.280815 0.091591 -0.827481
# 48 positions

vt 0.891026 0.903512
vt 0.891026 0.682321
vt 0.998008 0.903512
vt 0.998008 0.682321
vt 0.133805 0.801503
vt 0.133805 0.758305
vt 0.146189 0.801503
vt 0.146189 0.758305
vt 0.147278 0.801503
vt 0.147278 0.758305
vt 0.159661 0.801503
vt 0.159661 0.758305
vt 0.160722 0.758305
vt 0.203920 0.758305
vt 0.160722 0.801503
vt 0.203920 0.801503
vt 0.771774 0.682321
vt 0.771774 0.854740
vt 0.712492 0.682321
vt 0.712492 0.854740
vt 0.204976 0.801503
vt 0.204976 0.758305
vt 0.217360 0.801503
vt 0.217360 0.758305
vt 0.218421 0.801503
vt 0.218421 0.758305
vt 0.230804 0.801503
vt 0.230804 0.758305
vt 0.001992 0.722941
vt 0.001992 0.001803
vt 0.108974 0.722941
vt 0.108974 0.001803
vt 0.745551 0.001803
vt 0.745551 0.678330
vt 0.686269 0.001803
vt 0.686269 0.678330
vt 0.115226 0.722941
vt 0.115226 0.001803
vt 0.336417 0.722941
vt 0.336417 0.001803
vt 0.924952 0.678330
vt 0.752533 0.678330
vt 0.924952 0.001803
vt 0.752533 0.001803
vt 0.931837 0.678330
vt 0.931837 0.001803
vt 0.991119 0.678330
vt 0.991119 0.001803
vt 0.343254 0.722941
vt 0.343254 0.001803
vt 0.450236 0.722941
vt 0.450236 0.001803
vt 0.231865 0.801503
vt 0.231865 0.758305
vt 0.244248 0.801503
vt 0.244248 0.758305
vt 0.245309 0.801503
vt 0.245309 0.758305
vt 0.257693 0.801503
vt 0.257693 0.758305
vt 0.233748 0.802077
vt 0.276946 0.802077
vt 0.233748 0.845274
vt 0.276946 0.845274
vt 0.220483 0.845274
vt 0.220483 0.802076
vt 0.232867 0.845274
vt 0.232867 0.802076
vt 0.207218 0.845274
vt 0.207218 0.802077
vt 0.219602 0.845274
vt 0.219602 0.802077
vt 0.193953 0.845274
vt 0.193953 0.802077
vt 0.206337 0.845274
vt 0.206337 0.802077
vt 0.180688 0.845274
vt 0.180688 0.802077
vt 0.193072 0.845274
vt 0.193072 0.802077
vt 0.136609 0.802077
vt 0.179807 0.802077
vt 0.136609 0.845275
vt 0.179807 0.845275
vt 0.777909 0.903512
vt 0.777909 0.682321
vt 0.884891 0.903512
vt 0.884891 0.682321
vt 0.706356 0.726933
vt 0.706356 0.899351
vt 0.647075 0.726933
vt 0.647075 0.899351
vt 0.133805 0.889046
vt 0.133805 0.845848
vt 0.146189 0.889046
vt 0.146189 0.845848
vt 0.147278 0.889046
vt 0.147278 0.845848
vt 0.159661 0.889046
vt 0.159661 0.845848
vt 0.679433 0.722941
vt 0.458242 0.722941
vt 0.655046 0.700635
vt 0.482628 0.700635
vt 0.458242 0.001803
vt 0.482628 0.024109
vt 0.679433 0.001803
vt 0.655046 0.024109
vt 0.160722 0.889046
vt 0.160722 0.845848
vt 0.173105 0.889046
vt 0.173105 0.845848
vt 0.174166 0.889046
vt 0.174166 0.845848
vt 0.186550 0.889046
vt 0.186550 0.845848
vt 0.187611 0.845848
vt 0.230809 0.845848
vt 0.187611 0.889046
vt 0.230809 0.889046
vt 0.231865 0.889046
vt 0.231865 0.845848
vt 0.244248 0.889046
vt 0.244248 0.845848
vt 0.245309 0.889046
vt 0.245309 0.845848
vt 0.257693 0.889046
vt 0.257693 0.845848
# 128 texture coordinates

vn -1.000000 0.000000 0.000000
vn -1.000000 0.000000 0.000000
vn -1.000000 0.000000 0.000000
vn -1.000000 0.000000 0.000000
vn 0.000000 0.000000 -1.000000
vn 0.000000 0.000000 -1.000000
vn 0.000000 0.000000 -1.000000
vn 0.000000 0.000000 -1.000000
vn -1.000000 0.000000 0.000000
vn -1.000000 0.000000 0.000000
vn -1.000000 0.000000 0.000000
vn -1.000000 0.000000 0.000000
vn 0.000000 -1.000000 0.000000
vn 0.000000 -1.000000 0.000000
vn 0.000000 -1.000000 0.000000
vn 0.000000 -1.000000 0.000000
vn 1.000000 0.000000 0.000000
vn 1.000000 0.000000 0.000000
vn 1.000000 0.000000 0.000000
vn 1.000000 0.000000 0.000000
vn 1.000000 0.000000 0.000000
vn 1.000000 0.000000 0.000000
vn 1.000000 0.000000 0.000000
vn 1.000000 0.000000 0.000000
vn 0.000000 0.000000 1.000000
vn 0.000000 0.000000 1.000000
vn 0.000000 0.000000 1.000000
vn 0.000000 0.000000 1.000000
vn 0.000000 0.000000 -1.000000
vn 0.000000 0.000000 -1.000000
vn 0.000000 0.000000 -1.000000
vn 0.000000 0.000000 -1.000000
vn 0.000000 0.000000 1.000000
vn 0.000000 0.000000 1.000000
vn 0.000000 0.000000 1.000000
vn 0.000000 0.000000 1.000000
vn 0.000000 -1.000000 0.000000
vn 0.000000 -1.000000 0.000000
vn 0.000000 -1.000000 0.000000
vn 0.000000 -1.000000 0.000000
vn 0.000000 1.000000 0.000000
vn 0.000000 1.000000 0.000000
vn 0.000000 1.000000 0.000000
vn 0.000000 1.000000 0.000000
vn 0.000000 0.000000 -1.000000
vn 0.000000 0.000000 -1.000000
vn 0.000000 0.000000 -1.000000
vn 0.000000 0.000000 -1.000000
vn 0.000000 0.000000 1.000000
vn 0.000000 0.000000 1.000000
vn 0.000000 0.000000 1.000000
vn 0.000000 0.000000 1.000000
vn 0.000000 0.000000 -1.000000
vn 0.000000 0.000000 -1.000000
vn 0.000000 0.000000 -1.000000
vn 0.000000 0.000000 -1.000000
vn -1.000000 0.000000 0.000000
vn -1.000000 0.000000 0.000000
vn -1.000000 0.000000 0.000000
vn -1.000000 0.000000 0.000000
vn 0.000000 -1.000000 0.000000
vn 0.000000 -1.000000 0.000000
vn 0.000000 -1.000000 0.000000
vn 0.000000 -1.000000 0.000000
vn 1.000000 0.000000 0.000000
vn 1.000000 0.000000 0.000000
vn 1.000000 0.000000 0.000000
vn 1.000000 0.000000 0.000000
vn 0.000000 0.000000 1.000000
vn 0.000000 0.000000 1.000000
vn 0.000000 0.000000 1.000000
vn 0.000000 0.000000 1.000000
vn 0.000000 0.000000 -1.000000
vn 0.000000 0.000000 -1.000000
vn 0.000000 0.000000 -1.000000
vn 0.000000 0.000000 -1.000000
vn -1.000000 0.000000 0.000000
vn -1.000000 0.000000 0.000000
vn -1.000000 0.000000 0.000000
vn -1.000000 0.000000 0.000000
vn 0.000000 -1.000000 0.000000
vn 0.000000 -1.000000 0.000000
vn 0.000000 -1.000000 0.000000
vn 0.000000 -1.000000 0.000000
vn 1.000000 0.000000 0.000000
vn 1.000000 0.000000 0.000000
vn 1.000000 0.000000 0.000000
vn 1.000000 0.000000 0.000000
vn -1.000000 0.000000 0.000000
vn -1.000000 0.000000 0.000000
vn -1.000000 0.000000 0.000000
vn -1.000000 0.000000 0.000000
vn 1.000000 0.000000 0.000000
vn 1.000000 0.000000 0.000000
vn 1.000000 0.000000 0.000000
vn 1.000000 0.000000 0.000000
vn 0.000000 0.000000 1.000000
vn 0.000000 0.000000 1.000000
vn 0.000000 0.000000 1.000000
vn 0.000000 0.000000 1.000000
vn 0.000000 1.000000 0.000000
vn 0.000000 1.000000 0.000000
vn 0.000000 1.000000 0.000000
vn 0.000000 1.000000 0.000000
vn 0.000000 1.000000 0.000000
vn 0.000000 1.000000 0.000000
vn 0.000000 1.000000 0.000000
vn 0.000000 1.000000 0.000000
vn 0.000000 0.000000 1.000000
vn 0.000000 0.000000 1.000000
vn 0.000000 0.000000 1.000000
vn 0.000000 0.000000 1.000000
vn 1.000000 0.000000 0.000000
vn 1.000000 0.000000 0.000000
vn 1.000000 0.000000 0.000000
vn 1.000000 0.000000 0.000000
vn 0.000000 -1.000000 0.000000
vn 0.000000 -1.000000 0.000000
vn 0.000000 -1.000000 0.000000
vn 0.000000 -1.000000 0.000000
vn -1.000000 0.000000 0.000000
vn -1.000000 0.000000 0.000000
vn -1.000000 0.000000 0.000000
vn -1.000000 0.000000 0.000000
vn 0.000000 0.000000 -1.000000
vn 0.000000 0.000000 -1.000000
vn 0.000000 0.000000 -1.000000
vn 0.000000 0.000000 -1.000000
# 128 normals

usemtl initialShadingGroup
s 1
f 1/1/1 2/2/2 4/3/3
f 4/3/3 2/2/2 3/4/4
s 2
f 5/5/5 6/6/6 8/7/7
f 8/7/7 6/6/6 7/8/8
s 3
f 8/9/9 9/10/10 5/11/11
f 5/11/11 9/10/10 10/12/12
s 4
f 8/13/13 7/14/14 9/15/15
f 9/15/15 7/14/14 11/16/16
s 5
f 12/17/17 13/18/18 15/19/19
f 15/19/19 13/18/18 14/20/20
s 6
f 11/21/21 7/22/22 16/23/23
f 16/23/23 7/22/22 6/24/24
s 7
f 9/25/25 11/26/26 10/27/27
f 10/27/27 11/26/26 16/28/28
s 8
f 4/29/29 17/30/30 1/31/31
f 1/31/31 17/30/30 18/32/32
s 9
f 19/33/33 12/34/34 20/35/35
f 20/35/35 12/34/34 15/36/36
s 10
f 1/37/37 18/38/38 2/39/39
f 2/39/39 18/38/38 21/40/40
s 11
f 15/41/41 14/42/42 20/43/43
f 20/43/43 14/42/42 22/44/44
s 12
f 13/45/45 23/46/46 14/47/47
f 14/47/47 23/46/46 22/48/48
s 13
f 2/49/49 21/50/50 3/51/51
f 3/51/51 21/50/50 24/52/52
s 14
f 25/53/53 26/54/54 28/55/55
f 28/55/55 26/54/54 27/56/56
s 15
f 28/57/57 29/58/58 25/59/59
f 25/59/59 29/58/58 30/60/60
s 16
f 28/61/61 27/62/62 29/63/63
f 29/63/63 27/62/62 31/64/64
s 17
f 31/65/65 27/66/66 32/67/67
f 32/67/67 27/66/66 26/68/68
s 18
f 29/69/69 31/70/70 30/71/71
f 30/71/71 31/70/70 32/72/72
s 19
f 33/73/73 34/74/74 36/75/75
f 36/75/75 34/74/74 35/76/76
s 20
f 36/77/77 37/78/78 33/79/79
f 33/79/79 37/78/78 38/80/80
s 21
f 36/81/81 35/82/82 37/83/83
f 37/83/83 35/82/82 39/84/84
s 22
f 21/85/85 18/86/86 24/87/87
f 24/87/87 18/86/86 17/88/88
s 23
f 23/89/89 19/90/90 22/91/91
f 22/91/91 19/90/90 20/92/92
s 24
f 39/93/93 35/94/94 40/95/95
f 40/95/95 35/94/94 34/96/96
s 25
f 37/97/97 39/98/98 38/99/99
f 38/99/99 39/98/98 40/100/100
s 26
f 4/101/101 3/102/102 12/103/103
f 12/103/103 3/102/102 13/104/104
f 3/102/102 24/105/105 13/104/104
f 24/105/105 23/106/106 13/104/104
f 24/105/105 17/107/107 23/106/106
f 23/106/106 17/107/107 19/108/108
f 17/107/107 4/101/101 19/108/108
f 4/101/101 12/103/103 19/108/108
s 27
f 41/109/109 42/110/110 44/111/111
f 44/111/111 42/110/110 43/112/112
s 28
f 42/113/113 45/114/114 43/115/115
f 43/115/115 45/114/114 46/116/116
s 29
f 47/117/117 45/118/118 41/119/119
f 41/119/119 45/118/118 42/120/120
s 30
f 47/121/121 41/122/122 48/123/123
f 48/123/123 41/122/122 44/124/124
s 31
f 48/125/125 46/126/126 47/127/127
f 47/127/127 46/126/126 45/128/128

# 68 faces
